<svg width="1920" height="1080" viewBox="0 0 1920 1080" xmlns="http://www.w3.org/2000/svg"><rect width="1920" height="1080" fill="#d3c4a2"/><path d="M 0,1080 C 0,1080 0,180 0,180 C 116.92051282051281,154.58717948717947 233.84102564102562,129.17435897435897 338,138 C 442.1589743589744,146.82564102564103 533.5564102564103,189.8897435897436 626,207 C 718.4435897435897,224.1102564102564 811.9333333333335,215.26666666666668 910,199 C 1008.0666666666665,182.73333333333332 1110.7102564102563,159.04358974358973 1233,170 C 1355.2897435897437,180.95641025641027 1497.225641025641,226.55897435897435 1615,234 C 1732.774358974359,241.44102564102565 1826.3871794871795,210.72051282051282 1920,180 C 1920,180 1920,1080 1920,1080 Z" fill="#381d03" opacity="0.09999999999999999"/><path d="M 0,1080 C 0,1080 0,360 0,360 C 125.51794871794871,358.31025641025644 251.03589743589743,356.62051282051283 345,352 C 438.9641025641026,347.37948717948717 501.374358974359,339.8282051282051 598,340 C 694.625641025641,340.1717948717949 825.4666666666667,348.06666666666666 933,356 C 1040.5333333333333,363.93333333333334 1124.7589743589745,371.9051282051282 1244,370 C 1363.2410256410255,368.0948717948718 1517.4974358974357,356.3128205128205 1636,353 C 1754.5025641025643,349.6871794871795 1837.251282051282,354.84358974358975 1920,360 C 1920,360 1920,1080 1920,1080 Z" fill="#381d03" opacity="0.19999999999999998"/><path d="M 0,1080 C 0,1080 0,540 0,540 C 123.71538461538461,527.0717948717949 247.43076923076922,514.1435897435897 363,520 C 478.5692307692308,525.8564102564103 585.9923076923078,550.4974358974359 687,551 C 788.0076923076922,551.5025641025641 882.5999999999999,527.8666666666667 965,537 C 1047.4,546.1333333333333 1117.6076923076923,588.0358974358974 1227,574 C 1336.3923076923077,559.9641025641026 1484.9692307692308,489.9897435897436 1607,475 C 1729.0307692307692,460.0102564102564 1824.5153846153846,500.0051282051282 1920,540 C 1920,540 1920,1080 1920,1080 Z" fill="#381d03" opacity="0.3"/><path d="M 0,1080 C 0,1080 0,720 0,720 C 108.7051282051282,731.4820512820513 217.4102564102564,742.9641025641025 317,721 C 416.5897435897436,699.0358974358975 507.06410256410254,643.6256410256411 610,652 C 712.9358974358975,660.3743589743589 828.3333333333333,732.5333333333333 941,765 C 1053.6666666666667,797.4666666666667 1163.6025641025642,790.2410256410257 1261,780 C 1358.3974358974358,769.7589743589743 1443.2564102564104,756.5025641025642 1551,746 C 1658.7435897435896,735.4974358974358 1789.371794871795,727.748717948718 1920,720 C 1920,720 1920,1080 1920,1080 Z" fill="#381d03" opacity="0.39999999999999997"/><path d="M 0,1080 C 0,1080 0,900 0,900 C 120.09230769230771,940.2205128205128 240.18461538461543,980.4410256410257 346,965 C 451.8153846153846,949.5589743589743 543.353846153846,878.4564102564101 652,856 C 760.646153846154,833.5435897435899 886.4000000000003,859.7333333333333 1004,875 C 1121.5999999999997,890.2666666666667 1231.0461538461536,894.6102564102564 1317,887 C 1402.9538461538464,879.3897435897436 1465.4153846153847,859.825641025641 1562,860 C 1658.5846153846153,860.174358974359 1789.2923076923075,880.0871794871796 1920,900 C 1920,900 1920,1080 1920,1080 Z" fill="#381d03" opacity="0.49999999999999994"/></svg>