<svg xmlns="http://www.w3.org/2000/svg" version="1.1" xmlns:xlink="http://www.w3.org/1999/xlink" xmlns:svgjs="http://svgjs.dev/svgjs" viewBox="0 0 800 800" opacity="1"><g stroke-width="0.5" stroke="hsla(0, 0%, 0%, 1.00)" fill="none" stroke-linecap="round" transform="matrix(1,0,0,1,-5,326.52101135253906)"><path d="M10,10C49.583333333333336,25.625,118.75,102.29166666666667,200,85C281.25,67.70833333333333,316.66666666666663,-73.41666666666667,400,-73C483.33333333333337,-72.58333333333333,516.6666666666666,75.54166666666667,600,87C683.3333333333334,98.45833333333333,758.3333333333334,3.875,800,-18"></path><path d="M10,10C49.583333333333336,25.625,118.75,102.29166666666667,200,85C281.25,67.70833333333333,316.66666666666663,-73.41666666666667,400,-73C483.33333333333337,-72.58333333333333,516.6666666666666,75.54166666666667,600,87C683.3333333333334,98.45833333333333,758.3333333333334,3.875,800,-18" transform="matrix(1,0,0,1,0,132)"></path><path d="M10,10C49.583333333333336,25.625,118.75,102.29166666666667,200,85C281.25,67.70833333333333,316.66666666666663,-73.41666666666667,400,-73C483.33333333333337,-72.58333333333333,516.6666666666666,75.54166666666667,600,87C683.3333333333334,98.45833333333333,758.3333333333334,3.875,800,-18" transform="matrix(1,0,0,1,0,110)"></path><path d="M10,10C49.583333333333336,25.625,118.75,102.29166666666667,200,85C281.25,67.70833333333333,316.66666666666663,-73.41666666666667,400,-73C483.33333333333337,-72.58333333333333,516.6666666666666,75.54166666666667,600,87C683.3333333333334,98.45833333333333,758.3333333333334,3.875,800,-18" transform="matrix(1,0,0,1,0,88)"></path><path d="M10,10C49.583333333333336,25.625,118.75,102.29166666666667,200,85C281.25,67.70833333333333,316.66666666666663,-73.41666666666667,400,-73C483.33333333333337,-72.58333333333333,516.6666666666666,75.54166666666667,600,87C683.3333333333334,98.45833333333333,758.3333333333334,3.875,800,-18" transform="matrix(1,0,0,1,0,66)"></path><path d="M10,10C49.583333333333336,25.625,118.75,102.29166666666667,200,85C281.25,67.70833333333333,316.66666666666663,-73.41666666666667,400,-73C483.33333333333337,-72.58333333333333,516.6666666666666,75.54166666666667,600,87C683.3333333333334,98.45833333333333,758.3333333333334,3.875,800,-18" transform="matrix(1,0,0,1,0,44)"></path><path d="M10,10C49.583333333333336,25.625,118.75,102.29166666666667,200,85C281.25,67.70833333333333,316.66666666666663,-73.41666666666667,400,-73C483.33333333333337,-72.58333333333333,516.6666666666666,75.54166666666667,600,87C683.3333333333334,98.45833333333333,758.3333333333334,3.875,800,-18" transform="matrix(1,0,0,1,0,22)"></path></g></svg>